{"title":"Scream 2011 HDRip XViD READNFO DTRG","uid":6561360,"size":1051316693,"categoryP":"video","categoryS":"movies","magnet":"?xt=urn:btih:266ff43c5b5e658d4510319be4f124db3ac9fcca&amp;dn=Scream+2011+HDRip+XViD+READNFO+DTRG&amp;tr=udp%3A%2F%2Ftracker.openbittorrent.com%3A80&amp;tr=udp%3A%2F%2Fopen.demonii.com%3A1337&amp;tr=udp%3A%2F%2Ftracker.coppersurfer.tk%3A6969&amp;tr=udp%3A%2F%2Fexodus.desync.com%3A6969","seeders":6,"leechers":0,"uploader":"SAFCukO09","files":4,"time":1311492951,"description":"Format : AVI\nFormat/Info : Audio Video Interleave\nFile size : 986 MiB\nDuration : 1h 46mn\nOverall bit rate : 1 292 Kbps\nWriting library : VirtualDub build 32842/release\n\nVideo\nID : 0\nFormat : MPEG-4 Visual\nFormat profile : Advanced Simple@L5\nFormat settings, BVOP : 2\nFormat settings, QPel : No\nFormat settings, GMC : No warppoints\nFormat settings, Matrix : Default (H.263)\nMuxing mode : Packed bitstream\nCodec ID : XVID\nCodec ID/Hint : XviD\nDuration : 1h 46mn\nBit rate : 1 088 Kbps\nWidth : 720 pixels\nHeight : 272 pixels\nDisplay aspect ratio : 2.647\nFrame rate : 29.970 fps\nColor space : YUV\nChroma subsampling : 4:2:0\nBit depth : 8 bits\nScan type : Progressive\nCompression mode : Lossy\nBits/(Pixel*Frame) : 0.185\nStream size : 830 MiB (84%)\nWriting library : XviD 64\n\nAudio\nID : 1\nFormat : MPEG Audio\nFormat version : Version 1\nFormat profile : Layer 3\nMode : Joint stereo\nMode extension : MS Stereo\nCodec ID : 55\nCodec ID/Hint : MP3\nDuration : 1h 46mn\nBit rate mode : Constant\nBit rate : 192 Kbps\nChannel(s) : 2 channels\nSampling rate : 44.1 KHz\nCompression mode : Lossy\nStream size : 146 MiB (15%)\nAlignment : Split accross interleaves\nInterleave, duration : 33 ms (1.00 video frame)\nInterleave, preload duration : 500 ms\n\n\n\n\n\n &lt;a href=&quot;\nhttp://www.imdb.com/title/tt1262416/&quot; rel=&quot;nofollow&quot; target=&quot;_NEW&quot;&gt;\nhttp://www.imdb.com/title/tt1262416/&lt;/a&gt;\n\n\n\n\n\n\n\n\nUsers: (22,731 votes) 364 reviews | Critics: 274 reviews Metascore: 52/100 (based on 32 reviews from Metacritic.com)\n\n\nTen years have passed, and Sidney Prescott, who has put herself back together thanks in part to her writing, is visited by the Ghostface Killer.\n\nDirector: Wes Craven\nWriters: Kevin Williamson, Kevin Williamson (characters)\nStars: Neve Campbell, Courteney Cox and David Arquette\n\n\n\n\n\n\n\n\n\n\n\n\n\n\n\n\n\n\n\n\n\nSource Used\n\n\n\nHD KORSUB RIP .........Thanks\n\n\nOne and only reason for the READNFO is cropped fully out the korsubs .Dont like cropping vids one bit but was asked ...Never lost too much tho as bottom of screen was black border\n\n\nAr is slightly off as after crop resized a touch but not much\n\n\n\nEnjoy\n\n\n\n\n\nGreetz to IMAGiNE,Flawl3ss,DiLLoN,BDK,NOiR,TOXiC,THC,Ez,Rx,Boobyblue,TaRiQ786,BHRG","torrent":{"xt":"urn:btih:266ff43c5b5e658d4510319be4f124db3ac9fcca","amp;dn":"Scream+2011+HDRip+XViD+READNFO+DTRG","amp;tr":["udp%3A%2F%2Ftracker.openbittorrent.com%3A80","udp%3A%2F%2Fopen.demonii.com%3A1337","udp%3A%2F%2Ftracker.coppersurfer.tk%3A6969","udp%3A%2F%2Fexodus.desync.com%3A6969"],"infoHash":"266ff43c5b5e658d4510319be4f124db3ac9fcca","infoHashBuffer":{"type":"Buffer","data":[38,111,244,60,91,94,101,141,69,16,49,155,228,241,36,219,58,201,252,202]},"announce":[],"urlList":[]}}